<svg height="130" viewBox="0 0 84 130" width="84" xmlns="http://www.w3.org/2000/svg"><g fill="none" fill-rule="evenodd"><path d="m41.8945976 15.6639447c-23.8846277 63.0554223-37.15170432 98.0921883-39.79935563 105.1053453.30664135.304746.88082361.687685 1.69245718 1.095945 1.96664614.989244 5.04620997 1.998023 8.88744075 2.899652 8.2645505 1.93989 19.0089312 3.172173 29.2380663 3.232725 10.3126859.061047 21.1991799-1.063481 29.44686-2.942292 3.8993651-.88827 6.9893385-1.901844 8.9253639-2.917193.8252936-.432825 1.3837971-.838444 1.6493903-1.151702-2.8074525-6.706034-16.1342813-41.7623455-40.0402228-105.3224803z" fill-rule="nonzero" stroke="#58738c" stroke-width="4"/><path d="m42 15-5.8778525 3.0901699 1.1225699-6.5450849-4.7552826-4.63525494 6.5716389-.95491503 2.9389263-5.95491503 2.9389263 5.95491503 6.5716389.95491503-4.7552826 4.63525494 1.1225699 6.5450849z" fill="#58738c"/></g></svg>