<svg height="140" viewBox="0 0 140 140" width="140" xmlns="http://www.w3.org/2000/svg"><g fill="none" fill-rule="evenodd"><g stroke="#c8c8c8" stroke-linecap="square" stroke-width="2"><path d="m44 94c8.6666667 2 17.3333333 3 26 3s17.3333333-1 26-3"/><path d="m49 75c7 1.3333333 14 2 21 2s14-.6666667 21-2"/><path d="m57 55c4.3333333.6666667 8.6666667 1 13 1s8.6666667-.3333333 13-1"/><path d="m38 111c10.6666667 3.333333 21.3333333 5 32 5s21.3333333-1.666667 32-5"/></g><path d="m69.8945976 20.6639447c-23.8846277 63.0554223-37.1517043 98.0921883-39.7993556 105.1053453.3066413.304746.8808236.687685 1.6924572 1.095945 1.9666461.989244 5.0462099 1.998023 8.8874407 2.899652 8.2645505 1.93989 19.0089312 3.172173 29.2380663 3.232725 10.3126859.061047 21.1991799-1.063481 29.44686-2.942292 3.8993648-.88827 6.9893388-1.901844 8.9253638-2.917193.825294-.432825 1.383797-.838444 1.64939-1.151702-2.807452-6.706034-16.1342809-41.7623455-40.0402224-105.3224803zm-39.9363556 105.4683433c-.0027918.0074-.0055673.014757-.0083265.022071.0082775-.021942.0155131-.044427.0217192-.067277z" fill-rule="nonzero" stroke="#58738c" stroke-width="4"/><path d="m70 20-5.8778525 3.0901699 1.1225699-6.5450849-4.7552826-4.6352549 6.5716389-.9549151 2.9389263-5.954915 2.9389263 5.954915 6.5716389.9549151-4.7552826 4.6352549 1.1225699 6.5450849z" fill="#fff"/></g></svg>