<svg height="140" viewBox="0 0 140 140" width="140" xmlns="http://www.w3.org/2000/svg"><g fill="none" fill-rule="evenodd"><g stroke="#c8c8c8" stroke-linecap="square" stroke-width="2"><path d="m44 94c8.6666667 2 17.3333333 3 26 3s17.3333333-1 26-3"/><path d="m49 75c7 1.3333333 14 2 21 2s14-.6666667 21-2"/><path d="m38 111c10.6666667 3.333333 21.3333333 5 32 5s21.3333333-1.666667 32-5"/></g><path d="m69.8945976 20.6640448c-23.8846743 63.0568183-37.1517548 98.0943022-39.7993674 105.1074982.3066362.304758.8808276.687715 1.6924834 1.095994 1.9666444.989262 5.0462063 1.998061 8.8874351 2.899708 8.2645478 1.939928 19.0089255 3.172236 29.2380577 3.23279 10.312683.061048 21.199174-1.063502 29.4468512-2.942351 3.8993634-.888287 6.9893344-1.901881 8.9253574-2.91725.825319-.432847 1.383832-.838486 1.649417-1.151756-2.807414-6.706065-16.1342474-41.7630942-40.0402344-105.3246332z" fill-rule="nonzero" stroke="#58738c" stroke-width="4"/><path d="m70 20-5.8778525 3.0901699 1.1225699-6.5450849-4.7552826-4.6352549 6.5716389-.9549151 2.9389263-5.954915 2.9389263 5.954915 6.5716389.9549151-4.7552826 4.6352549 1.1225699 6.5450849z" fill="#58738c"/></g></svg>