<svg height="128" viewBox="0 0 128 128" width="128" xmlns="http://www.w3.org/2000/svg"><g fill="none" fill-rule="evenodd"><path d="m0 0h128v128h-128z" fill="#0f2941"/><path d="m32 100c10.6666667 3.333333 21.3333333 5 32 5s21.3333333-1.666667 32-5" stroke="#c8c8c8" stroke-linecap="square" stroke-width="2"/><path d="m63.8945976 9.6640448c-23.8846743 63.0568183-37.1517548 98.0943022-39.7993674 105.1074982.3066362.304758.8808276.687715 1.6924834 1.095994 1.9666444.989262 5.0462063 1.998061 8.8874351 2.899708 8.2645478 1.939928 19.0089255 3.172236 29.2380577 3.23279 10.312683.061048 21.199174-1.063502 29.4468512-2.942351 3.899363-.888287 6.9893344-1.901881 8.9253574-2.91725.825319-.432847 1.383832-.838486 1.649417-1.151756-2.807414-6.706065-16.1342474-41.7630942-40.0402344-105.3246332zm-39.9363516 105.4704622c-.0027916.007399-.0055669.014756-.0083258.022069.0082768-.02194.0155117-.044424.0217173-.067272z" fill-rule="nonzero" stroke="#58738c" stroke-width="4"/></g></svg>