<svg height="1050" viewBox="0 0 1050 1050" width="1050" xmlns="http://www.w3.org/2000/svg"><g fill="none" fill-rule="evenodd"><g fill="#000" fill-rule="nonzero"><path d="m420 0h42v42h-42z"/><path d="m504 0h42v42h-42z"/><path d="m588 0h42v42h-42z"/><path d="m630 0h42v42h-42z"/><path d="m420 42h42v42h-42z"/><path d="m462 42h42v42h-42z"/><path d="m504 42h42v42h-42z"/><path d="m588 42h42v42h-42z"/><path d="m630 42h42v42h-42z"/><path d="m672 42h42v42h-42z"/><path d="m420 84h42v42h-42z"/><path d="m588 84h42v42h-42z"/><path d="m420 126h42v42h-42z"/><path d="m504 126h42v42h-42z"/><path d="m588 126h42v42h-42z"/><path d="m378 168h42v42h-42z"/><path d="m630 168h42v42h-42z"/><path d="m672 168h42v42h-42z"/><path d="m336 210h42v42h-42z"/><path d="m378 210h42v42h-42z"/><path d="m504 210h42v42h-42z"/><path d="m546 210h42v42h-42z"/><path d="m588 210h42v42h-42z"/><path d="m630 210h42v42h-42z"/><path d="m336 252h42v42h-42z"/><path d="m420 252h42v42h-42z"/><path d="m504 252h42v42h-42z"/><path d="m588 252h42v42h-42z"/><path d="m672 252h42v42h-42z"/><path d="m420 294h42v42h-42z"/><path d="m462 294h42v42h-42z"/><path d="m588 294h42v42h-42z"/><path d="m0 336h42v42h-42z"/><path d="m126 336h42v42h-42z"/><path d="m210 336h42v42h-42z"/><path d="m252 336h42v42h-42z"/><path d="m336 336h42v42h-42z"/><path d="m378 336h42v42h-42z"/><path d="m462 336h42v42h-42z"/><path d="m546 336h42v42h-42z"/><path d="m588 336h42v42h-42z"/><path d="m630 336h42v42h-42z"/><path d="m672 336h42v42h-42z"/><path d="m714 336h42v42h-42z"/><path d="m798 336h42v42h-42z"/><path d="m0 378h42v42h-42z"/><path d="m42 378h42v42h-42z"/><path d="m84 378h42v42h-42z"/><path d="m126 378h42v42h-42z"/><path d="m294 378h42v42h-42z"/><path d="m378 378h42v42h-42z"/><path d="m504 378h42v42h-42z"/><path d="m546 378h42v42h-42z"/><path d="m672 378h42v42h-42z"/><path d="m714 378h42v42h-42z"/><path d="m756 378h42v42h-42z"/><path d="m1008 378h42v42h-42z"/><path d="m42 420h42v42h-42z"/><path d="m168 420h42v42h-42z"/><path d="m210 420h42v42h-42z"/><path d="m252 420h42v42h-42z"/><path d="m378 420h42v42h-42z"/><path d="m504 420h42v42h-42z"/><path d="m546 420h42v42h-42z"/><path d="m672 420h42v42h-42z"/><path d="m798 420h42v42h-42z"/><path d="m840 420h42v42h-42z"/><path d="m966 420h42v42h-42z"/><path d="m1008 420h42v42h-42z"/><path d="m0 462h42v42h-42z"/><path d="m126 462h42v42h-42z"/><path d="m168 462h42v42h-42z"/><path d="m210 462h42v42h-42z"/><path d="m294 462h42v42h-42z"/><path d="m336 462h42v42h-42z"/><path d="m378 462h42v42h-42z"/><path d="m420 462h42v42h-42z"/><path d="m462 462h42v42h-42z"/><path d="m504 462h42v42h-42z"/><path d="m546 462h42v42h-42z"/><path d="m588 462h42v42h-42z"/><path d="m672 462h42v42h-42z"/><path d="m714 462h42v42h-42z"/><path d="m0 504h42v42h-42z"/><path d="m42 504h42v42h-42z"/><path d="m84 504h42v42h-42z"/><path d="m126 504h42v42h-42z"/><path d="m168 504h42v42h-42z"/><path d="m210 504h42v42h-42z"/><path d="m252 504h42v42h-42z"/><path d="m378 504h42v42h-42z"/><path d="m420 504h42v42h-42z"/><path d="m504 504h42v42h-42z"/><path d="m546 504h42v42h-42z"/><path d="m630 504h42v42h-42z"/><path d="m672 504h42v42h-42z"/><path d="m714 504h42v42h-42z"/><path d="m756 504h42v42h-42z"/><path d="m882 504h42v42h-42z"/><path d="m966 504h42v42h-42z"/><path d="m1008 504h42v42h-42z"/><path d="m42 546h42v42h-42z"/><path d="m294 546h42v42h-42z"/><path d="m336 546h42v42h-42z"/><path d="m420 546h42v42h-42z"/><path d="m462 546h42v42h-42z"/><path d="m714 546h42v42h-42z"/><path d="m756 546h42v42h-42z"/><path d="m798 546h42v42h-42z"/><path d="m882 546h42v42h-42z"/><path d="m924 546h42v42h-42z"/><path d="m1008 546h42v42h-42z"/><path d="m0 588h42v42h-42z"/><path d="m84 588h42v42h-42z"/><path d="m126 588h42v42h-42z"/><path d="m168 588h42v42h-42z"/><path d="m210 588h42v42h-42z"/><path d="m252 588h42v42h-42z"/><path d="m294 588h42v42h-42z"/><path d="m420 588h42v42h-42z"/><path d="m462 588h42v42h-42z"/><path d="m588 588h42v42h-42z"/><path d="m756 588h42v42h-42z"/><path d="m798 588h42v42h-42z"/><path d="m840 588h42v42h-42z"/><path d="m924 588h42v42h-42z"/><path d="m1008 588h42v42h-42z"/><path d="m42 630h42v42h-42z"/><path d="m84 630h42v42h-42z"/><path d="m462 630h42v42h-42z"/><path d="m504 630h42v42h-42z"/><path d="m546 630h42v42h-42z"/><path d="m588 630h42v42h-42z"/><path d="m756 630h42v42h-42z"/><path d="m840 630h42v42h-42z"/><path d="m966 630h42v42h-42z"/><path d="m0 672h42v42h-42z"/><path d="m42 672h42v42h-42z"/><path d="m168 672h42v42h-42z"/><path d="m252 672h42v42h-42z"/><path d="m378 672h42v42h-42z"/><path d="m462 672h42v42h-42z"/><path d="m504 672h42v42h-42z"/><path d="m672 672h42v42h-42z"/><path d="m714 672h42v42h-42z"/><path d="m756 672h42v42h-42z"/><path d="m798 672h42v42h-42z"/><path d="m840 672h42v42h-42z"/><path d="m882 672h42v42h-42z"/><path d="m924 672h42v42h-42z"/><path d="m336 714h42v42h-42z"/><path d="m420 714h42v42h-42z"/><path d="m462 714h42v42h-42z"/><path d="m504 714h42v42h-42z"/><path d="m588 714h42v42h-42z"/><path d="m672 714h42v42h-42z"/><path d="m840 714h42v42h-42z"/><path d="m882 714h42v42h-42z"/><path d="m1008 714h42v42h-42z"/><path d="m420 756h42v42h-42z"/><path d="m546 756h42v42h-42z"/><path d="m630 756h42v42h-42z"/><path d="m672 756h42v42h-42z"/><path d="m756 756h42v42h-42z"/><path d="m840 756h42v42h-42z"/><path d="m882 756h42v42h-42z"/><path d="m966 756h42v42h-42z"/><path d="m1008 756h42v42h-42z"/><path d="m336 798h42v42h-42z"/><path d="m378 798h42v42h-42z"/><path d="m504 798h42v42h-42z"/><path d="m672 798h42v42h-42z"/><path d="m840 798h42v42h-42z"/><path d="m882 798h42v42h-42z"/><path d="m924 798h42v42h-42z"/><path d="m966 798h42v42h-42z"/><path d="m1008 798h42v42h-42z"/><path d="m420 840h42v42h-42z"/><path d="m504 840h42v42h-42z"/><path d="m546 840h42v42h-42z"/><path d="m672 840h42v42h-42z"/><path d="m714 840h42v42h-42z"/><path d="m756 840h42v42h-42z"/><path d="m798 840h42v42h-42z"/><path d="m840 840h42v42h-42z"/><path d="m882 840h42v42h-42z"/><path d="m966 840h42v42h-42z"/><path d="m336 882h42v42h-42z"/><path d="m378 882h42v42h-42z"/><path d="m504 882h42v42h-42z"/><path d="m630 882h42v42h-42z"/><path d="m798 882h42v42h-42z"/><path d="m840 882h42v42h-42z"/><path d="m882 882h42v42h-42z"/><path d="m924 882h42v42h-42z"/><path d="m630 924h42v42h-42z"/><path d="m798 924h42v42h-42z"/><path d="m840 924h42v42h-42z"/><path d="m924 924h42v42h-42z"/><path d="m1008 924h42v42h-42z"/><path d="m378 966h42v42h-42z"/><path d="m462 966h42v42h-42z"/><path d="m546 966h42v42h-42z"/><path d="m588 966h42v42h-42z"/><path d="m672 966h42v42h-42z"/><path d="m756 966h42v42h-42z"/><path d="m882 966h42v42h-42z"/><path d="m336 1008h42v42h-42z"/><path d="m420 1008h42v42h-42z"/><path d="m504 1008h42v42h-42z"/><path d="m546 1008h42v42h-42z"/><path d="m630 1008h42v42h-42z"/><path d="m672 1008h42v42h-42z"/><path d="m756 1008h42v42h-42z"/><path d="m798 1008h42v42h-42z"/><path d="m966 1008h42v42h-42z"/><path d="m1008 1008h42v42h-42z"/></g><path d="m44.1 44.1h205.8v205.8h-205.8z"/><path d="m249.9 0h-205.8-44.1v44.1 205.8 44.1h44.1 205.8 44.1v-44.1-205.8-44.1zm0 249.9h-205.8v-205.8h205.8z" fill="#000" fill-rule="nonzero"/><g transform="translate(756)"><path d="m44.1 44.1h205.8v205.8h-205.8z"/><path d="m249.9 0h-205.8-44.1v44.1 205.8 44.1h44.1 205.8 44.1v-44.1-205.8-44.1zm0 249.9h-205.8v-205.8h205.8z" fill="#000" fill-rule="nonzero"/></g><g transform="translate(0 756)"><path d="m44.1 44.1h205.8v205.8h-205.8z"/><path d="m249.9 0h-205.8-44.1v44.1 205.8 44.1h44.1 205.8 44.1v-44.1-205.8-44.1zm0 249.9h-205.8v-205.8h205.8z" fill="#000" fill-rule="nonzero"/></g><path d="m84 84h126v126h-126z" fill="#000" fill-rule="nonzero"/><path d="m840 84h126v126h-126z" fill="#000" fill-rule="nonzero"/><path d="m84 840h126v126h-126z" fill="#000" fill-rule="nonzero"/></g></svg>